<svg width="11" height="12" viewBox="0 0 11 12" fill="none" xmlns="http://www.w3.org/2000/svg">
<path d="M10.876 11.1597H8.7765V7.70593C8.7765 6.88236 8.76251 5.82217 7.68454 5.82217C6.59104 5.82217 6.42373 6.71948 6.42373 7.64597V11.1594H4.32422V4.05717H6.33975V5.02777H6.36797C6.77894 4.28964 7.54311 3.84879 8.3566 3.88051C10.4845 3.88051 10.8769 5.35077 10.8769 7.26348L10.876 11.1597Z" fill="#616161"/>
<path d="M1.7759 3.15102C1.17275 3.15113 0.683702 2.66226 0.683594 2.05911C0.683486 1.45595 1.17235 0.966905 1.77551 0.966797C2.37867 0.966689 2.86771 1.45556 2.86782 2.05871C2.86787 2.34836 2.75286 2.62616 2.54809 2.83101C2.34331 3.03586 2.06555 3.15097 1.7759 3.15102Z" fill="#616161"/>
<path d="M2.86782 11.1597H0.683594V3.87891H2.86782V11.1597Z" fill="#616161"/>
</svg>
