<svg width="13" height="10" viewBox="0 0 13 10" fill="none" xmlns="http://www.w3.org/2000/svg">
<path d="M4.26283 9.15975C8.65867 9.15975 11.064 5.79742 11.064 2.88655C11.064 2.79196 11.064 2.69737 11.0594 2.60278C11.5255 2.2932 11.9311 1.90193 12.2527 1.45907C11.8239 1.63535 11.3624 1.75145 10.8776 1.80734C11.3717 1.53646 11.7493 1.1022 11.9311 0.586238C11.4696 0.839918 10.9568 1.0205 10.4114 1.1194C9.97322 0.68943 9.35324 0.422852 8.66799 0.422852C7.34877 0.422852 6.27662 1.41177 6.27662 2.62857C6.27662 2.80056 6.29992 2.96825 6.33722 3.13163C4.3514 3.04134 2.58933 2.15991 1.40996 0.827019C1.20485 1.15379 1.08832 1.53216 1.08832 1.93633C1.08832 2.70167 1.51252 3.37671 2.15115 3.77228C1.75958 3.75938 1.39132 3.66049 1.06967 3.49711C1.06967 3.5057 1.06967 3.5143 1.06967 3.5272C1.06967 4.59352 1.89476 5.48785 2.98556 5.68993C2.78512 5.74153 2.57535 5.76732 2.35626 5.76732C2.20243 5.76732 2.05326 5.75442 1.90875 5.72863C2.21175 6.60576 3.09744 7.24211 4.14163 7.2593C3.3212 7.85266 2.29099 8.20523 1.17222 8.20523C0.981101 8.20523 0.789977 8.19663 0.603516 8.17513C1.65702 8.79428 2.91564 9.15975 4.26283 9.15975Z" fill="#616161"/>
</svg>
