<svg width="13" height="13" viewBox="0 0 13 13" fill="none" xmlns="http://www.w3.org/2000/svg">
<path fill-rule="evenodd" clip-rule="evenodd" d="M0.630859 6.7914C0.630859 3.57456 3.23862 0.966797 6.45546 0.966797C7.96072 0.966797 9.33261 1.53779 10.3664 2.475C10.2826 2.44136 10.1911 2.42285 10.0953 2.42285C9.69316 2.42285 9.36719 2.74882 9.36719 3.15093C9.36719 3.55303 9.69316 3.879 10.0953 3.879C10.4974 3.879 10.8233 3.55303 10.8233 3.15093C10.8233 3.05506 10.8048 2.96352 10.7711 2.8797C11.7088 3.91354 12.2801 5.28575 12.2801 6.7914C12.2801 10.0082 9.6723 12.616 6.45546 12.616C3.23862 12.616 0.630859 10.0082 0.630859 6.7914ZM4.37891 6.87123C4.37891 8.06108 5.34347 9.02564 6.53334 9.02564C7.72319 9.02564 8.68775 8.06108 8.68775 6.87123C8.68775 5.68136 7.72319 4.7168 6.53334 4.7168C5.34347 4.7168 4.37891 5.68136 4.37891 6.87123ZM3.21484 6.87075C3.21484 5.0377 4.70079 3.55176 6.53383 3.55176C8.36685 3.55176 9.85279 5.0377 9.85279 6.87075C9.85279 8.70376 8.36685 10.1897 6.53383 10.1897C4.70079 10.1897 3.21484 8.70376 3.21484 6.87075Z" fill="#616161"/>
</svg>
