<svg width="13" height="10" viewBox="0 0 13 10" fill="none" xmlns="http://www.w3.org/2000/svg">
<path d="M2.03762 2.20516C2.05209 2.07006 1.99756 1.93654 1.89078 1.84562L0.803089 0.607759V0.422852H4.18038L6.79084 5.83141L9.08588 0.422852H12.3055V0.607759L11.3755 1.45012C11.2953 1.50785 11.2555 1.60274 11.2721 1.69666V7.88594C11.2555 7.97986 11.2953 8.07475 11.3755 8.13249L12.2837 8.97484V9.15975H7.71538V8.97484L8.65624 8.11194C8.74869 8.02462 8.74869 7.99894 8.74869 7.8654V2.86261L6.13279 9.13921H5.77929L2.73375 2.86261V7.06926C2.70835 7.24612 2.77053 7.42418 2.90234 7.55208L4.12599 8.9543V9.13921H0.65625V8.9543L1.87991 7.55208C2.01076 7.42397 2.06931 7.24473 2.03762 7.06926V2.20516Z" fill="#616161"/>
</svg>
