<svg width="153" height="38" viewBox="0 0 153 38" fill="none" xmlns="http://www.w3.org/2000/svg">
<g id="Group 2085662484">
<path id="Vector" d="M146.643 1.59811C148.116 2.05527 148.863 1.73689 149.035 0.136819C149.04 0.0823951 149.069 0.0551843 149.12 0.0551843H149.259C149.286 0.0551843 149.312 0.0659369 149.331 0.0850741C149.35 0.104211 149.361 0.130165 149.361 0.157229L149.394 11.6843C149.394 11.8094 149.331 11.8652 149.206 11.8516L149.079 11.8394C149.022 11.8312 148.994 11.7999 148.994 11.7455C148.981 6.41872 146.067 1.27156 140.491 0.6348C136.36 0.161311 132.699 2.21446 132.283 6.59016C131.928 10.3658 134.711 12.5537 137.826 13.8231C139.902 14.6667 142.014 15.5103 144.161 16.3538C150.181 18.7172 153.794 23.3786 151.639 30.1503C150.956 32.2974 149.565 34.0253 147.467 35.3342C143.063 38.0854 137.634 37.6078 132.793 35.5261C131.773 35.0853 130.793 34.873 129.854 34.8893C128.813 34.9057 128.695 35.6649 128.307 36.4159C128.092 36.8268 127.985 36.801 127.985 36.3384L127.956 24.0236C127.956 23.9283 128.002 23.8793 128.095 23.8766L128.217 23.8725C128.264 23.8725 128.288 23.8957 128.291 23.9419C128.348 26.0019 128.665 27.6931 129.242 29.0156C131.076 33.209 134.205 35.7451 138.63 36.6241C144.389 37.767 148.508 33.4729 147.72 27.7747C147.279 24.5868 145.214 22.6766 142.41 21.4806C137.258 19.2805 129.091 17.4233 128.654 10.4434C128.148 2.3614 135.316 -1.30814 142.389 0.418465C143.821 0.7695 145.238 1.16271 146.643 1.59811Z" fill="white"/>
<path id="Vector_2" d="M17.0206 17.6478C17.9376 17.8818 18.8629 18.1036 19.7962 18.3131C24.8985 19.456 28.1435 23.6236 27.4823 28.8932C26.6945 35.1628 19.7064 36.8078 14.5429 36.7629C9.27741 36.7139 4.65 36.7221 0.660715 36.7874C0.527376 36.7901 0.457988 36.7262 0.452546 36.5955L0.448463 36.469C0.445742 36.4091 0.474314 36.3765 0.53418 36.371C2.46488 36.2363 4.0976 36.1629 4.10168 33.6077C4.10984 23.5582 4.11393 13.6054 4.11393 3.74924C4.11393 1.73283 2.93292 0.819858 0.570918 1.01034C0.548838 1.01213 0.526629 1.00916 0.505792 1.00164C0.484954 0.994124 0.46597 0.982232 0.450113 0.966763C0.434257 0.951293 0.421897 0.932605 0.413868 0.91196C0.405838 0.891314 0.402325 0.86919 0.403563 0.847073L0.411728 0.671558C0.413849 0.625723 0.433834 0.582538 0.467403 0.551258C0.500973 0.519977 0.545455 0.503086 0.591325 0.504202C6.52355 0.528693 11.1156 0.536856 14.3674 0.528692C17.407 0.517807 20.0588 1.28246 22.3229 2.82267C25.5638 5.02684 26.7435 9.63928 24.8658 13.0966C23.2943 15.9783 20.1105 17.011 17.0328 17.4641C16.7199 17.5104 16.7158 17.5716 17.0206 17.6478ZM16.5675 1.6267C14.8423 1.06341 13.0041 0.928708 11.053 1.2226C9.50191 1.45934 9.24067 2.87981 9.23659 4.18599C9.23387 8.61067 9.23115 12.9143 9.22843 17.0967C9.22843 17.2655 9.31279 17.3525 9.4815 17.358C11.4897 17.4423 13.2028 17.4219 14.6205 17.2968C19.784 16.8437 20.833 12.3578 20.5473 7.96166C20.3718 5.24318 19.2533 2.50429 16.5675 1.6267ZM11.4938 36.2812C17.1022 36.8976 21.3759 35.3302 21.9106 29.085C22.0848 27.0604 21.9678 25.1774 21.5596 23.4358C20.135 17.3621 14.2286 17.7988 9.46517 17.8805C9.4161 17.8815 9.3694 17.9013 9.33507 17.9357C9.30074 17.97 9.28151 18.0161 9.28149 18.0641C9.22163 23.2807 9.21618 28.4442 9.26517 33.5546C9.27877 35.2091 10.0217 36.118 11.4938 36.2812Z" fill="white"/>
<path id="Vector_3" d="M73.2395 4.19011C73.2313 1.7247 72.37 0.936909 69.8883 1.03487C69.8132 1.03815 69.7398 1.01128 69.6841 0.960089C69.6283 0.908898 69.5946 0.837506 69.5903 0.761386L69.5863 0.643016C69.5808 0.506956 69.6448 0.441649 69.7781 0.447091C73.5878 0.536891 77.2029 0.549135 80.6235 0.483826C87.1013 0.361372 92.6648 2.03491 96.4772 7.23105C98.5304 10.023 99.7059 13.6191 99.7957 17.0764C99.8651 19.6928 99.7549 22.4929 98.9671 24.9788C96.3996 33.0526 89.5259 36.9752 81.301 36.767C77.456 36.6663 73.6408 36.6731 69.8557 36.7874C69.725 36.7929 69.657 36.7303 69.6516 36.5997L69.6475 36.4935C69.6448 36.3928 69.6924 36.3425 69.7903 36.3425C72.1537 36.318 73.2231 35.8241 73.2354 33.2648C73.2762 25.1475 73.2776 15.4559 73.2395 4.19011ZM80.4928 36.167C94.2771 37.9181 95.1302 22.2235 93.8322 12.917C92.7954 5.46363 88.7748 0.540972 80.6275 1.12875C79.3459 1.22263 78.5417 2.29206 78.5417 3.49212C78.52 10.9591 78.5104 20.7622 78.5132 32.9015C78.5132 34.3751 78.6764 35.9343 80.4928 36.167Z" fill="white"/>
<path id="Vector_4" d="M43.7926 17.6559C45.0661 18.1335 46.4172 18.2559 47.6417 18.8804C53.4379 21.8397 52.2093 28.7176 52.4093 33.9546C52.4719 35.571 53.2733 36.3519 54.8135 36.2975C54.9522 36.2948 55.0257 36.3615 55.0339 36.4975L55.042 36.6037C55.0475 36.6935 55.0039 36.7397 54.9114 36.7424C52.1276 36.82 49.0581 36.9914 47.756 33.9872C47.2417 32.8062 46.975 31.4946 46.956 30.0523C46.9288 27.8645 46.8703 25.8182 46.7805 23.9133C46.4539 17.0967 41.0169 17.7906 36.0657 17.8763C36.0199 17.8774 35.9763 17.8963 35.9442 17.9291C35.9122 17.9619 35.8943 18.006 35.8943 18.0518C35.8562 22.901 35.8521 28.0346 35.882 33.4525C35.8929 35.5941 37.1542 36.5397 39.6659 36.2893C39.6911 36.2872 39.7164 36.2908 39.74 36.2999C39.7636 36.309 39.7849 36.3233 39.8022 36.3417C39.8195 36.3602 39.8323 36.3823 39.8398 36.4065C39.8473 36.4306 39.8493 36.4562 39.8455 36.4812L39.8251 36.6445C39.8193 36.6806 39.8005 36.7136 39.7721 36.7375C39.7437 36.7614 39.7075 36.7747 39.67 36.7751C35.5528 36.7261 31.441 36.7383 27.3347 36.8118C27.2041 36.8118 27.1347 36.7479 27.1266 36.62L27.1184 36.5057C27.1172 36.4825 27.1209 36.4593 27.1293 36.4377C27.1378 36.4161 27.1507 36.3965 27.1674 36.3802C27.184 36.364 27.2038 36.3515 27.2257 36.3436C27.2475 36.3357 27.2708 36.3325 27.2939 36.3343C29.5688 36.5601 30.7063 35.6213 30.7063 33.5178C30.7145 24.0671 30.7158 14.1632 30.7104 3.80633C30.7104 1.82801 29.6777 0.910962 27.6123 1.05519C27.5535 1.05853 27.4953 1.04278 27.4466 1.01034C27.398 0.977902 27.3615 0.93057 27.3429 0.875591L27.3021 0.761295C27.2531 0.608908 27.3089 0.532715 27.4694 0.532715C32.256 0.535436 36.8712 0.539517 41.3149 0.54496C46.8907 0.553123 53.4052 3.98184 52.8011 10.5168C52.3725 15.1619 47.9152 17.1334 43.813 17.4967C43.5735 17.5185 43.5667 17.5715 43.7926 17.6559ZM47.2744 5.9452C46.1437 1.4348 41.9394 0.724565 37.8984 1.18173C35.8453 1.41439 35.8698 3.31651 35.8698 4.90025C35.8698 9.2705 35.8711 13.3428 35.8739 17.1171C35.8739 17.2804 35.9555 17.3647 36.1188 17.3702C39.9802 17.4559 45.5314 17.8886 47.0825 13.1741C47.8417 10.8747 47.9057 8.46503 47.2744 5.9452Z" fill="white"/>
<path id="Vector_5" d="M56.4551 36.3915C58.2593 36.3711 59.8716 35.9996 59.8757 33.8322C59.8947 23.6276 59.8893 13.5306 59.8593 3.54108C59.8512 1.53283 58.3776 0.867491 56.6225 1.05934C56.4374 1.08111 56.3313 0.999467 56.3041 0.814425L56.2837 0.68789C56.2701 0.587206 56.3136 0.536865 56.4143 0.536865H68.5699C68.7495 0.536865 68.8298 0.625302 68.8107 0.80218L68.7944 0.957291C68.7904 0.996621 68.7718 1.03303 68.7424 1.05944C68.713 1.08585 68.6748 1.10036 68.6352 1.10015C66.1576 1.07974 65.1208 1.66344 65.1208 4.31662C65.1317 14.3905 65.1562 24.1787 65.1943 33.6811C65.197 34.7751 65.6106 35.5356 66.4351 35.9629C67.1127 36.3098 67.925 36.2159 68.6679 36.3343C68.7169 36.3425 68.7468 36.3697 68.7577 36.416L68.7822 36.5507C68.787 36.5748 68.7862 36.5997 68.7801 36.6236C68.7739 36.6474 68.7624 36.6697 68.7464 36.6888C68.7304 36.7079 68.7104 36.7234 68.6876 36.7341C68.6649 36.7447 68.64 36.7504 68.6148 36.7507L56.4306 36.7588C56.3599 36.7588 56.3231 36.7234 56.3204 36.6527L56.3163 36.5384C56.3152 36.5195 56.318 36.5006 56.3245 36.4828C56.3309 36.465 56.341 36.4487 56.354 36.435C56.367 36.4212 56.3827 36.4102 56.4001 36.4027C56.4174 36.3953 56.4362 36.3914 56.4551 36.3915Z" fill="white"/>
<path id="Vector_6" d="M109.008 17.8436C108.962 17.8447 108.919 17.8636 108.887 17.8964C108.855 17.9292 108.837 17.9733 108.837 18.0191C108.834 23.1921 108.835 28.323 108.841 33.4116C108.844 35.2729 109.653 36.243 111.27 36.322C117.102 36.6118 123.119 35.975 124.935 29.2523C125.379 27.6087 125.62 25.8739 125.658 24.048C125.661 23.9772 125.696 23.9377 125.764 23.9296L125.886 23.9133C126.055 23.8942 126.141 23.969 126.144 24.1378L126.25 36.5587C126.25 36.7492 126.156 36.8444 125.968 36.8444L100.232 36.8567C100.113 36.8567 100.055 36.7968 100.061 36.6771L100.065 36.5669C100.068 36.4362 100.134 36.3709 100.265 36.3709C102.118 36.3913 103.632 35.975 103.645 33.7953C103.691 24.0724 103.694 14.2135 103.653 4.21853C103.645 1.49597 102.596 1.27555 100.216 1.07146C100.178 1.06767 100.143 1.05075 100.117 1.02378C100.09 0.996821 100.075 0.961602 100.073 0.924517L100.069 0.818386C100.061 0.674162 100.13 0.602051 100.277 0.602051L124.846 0.634706C124.99 0.634706 125.063 0.706817 125.066 0.851041L125.127 11.8434C125.127 11.8715 125.117 11.8985 125.097 11.9184C125.078 11.9383 125.052 11.9495 125.025 11.9495L124.911 11.9536C124.786 11.9563 124.722 11.8951 124.719 11.7699C124.646 8.51668 123.948 5.23083 121.343 3.17768C118.613 1.02656 114.364 0.891862 111.012 1.198C109.586 1.32862 108.868 2.18307 108.857 3.76137C108.827 8.29218 108.822 12.7971 108.841 17.2762C108.841 17.3387 108.866 17.3988 108.91 17.4437C108.954 17.4886 109.014 17.5149 109.078 17.5171C112.641 17.6069 117.119 17.8967 118.315 13.4802C118.587 12.4679 118.712 11.4692 118.69 10.4841C118.688 10.3671 118.743 10.314 118.858 10.3249L118.996 10.3412C119.103 10.3494 119.156 10.4066 119.156 10.5127L119.152 25.3378C119.152 25.4657 119.088 25.5297 118.96 25.5297H118.833C118.812 25.5297 118.791 25.5254 118.771 25.5172C118.752 25.5089 118.734 25.4968 118.719 25.4816C118.704 25.4664 118.693 25.4483 118.685 25.4286C118.677 25.4088 118.673 25.3876 118.674 25.3664C118.727 22.9459 117.964 19.9335 115.735 18.7702C113.808 17.762 111.229 17.7987 109.008 17.8436Z" fill="white"/>
</g>
</svg>
