<svg width="176" height="36" viewBox="0 0 176 36" fill="none" xmlns="http://www.w3.org/2000/svg">
<path d="M15.1655 33.1572C17.772 33.1572 19.9551 32.6509 21.7148 31.6382C23.4746 30.6255 24.3545 28.6831 24.3545 25.811C24.3545 22.9556 23.3252 21.0049 21.2666 19.959C19.208 18.9131 16.585 18.3901 13.3975 18.3901C12.6172 18.3901 12.1191 18.3901 11.9033 18.3901C11.7041 18.3901 11.3887 18.3818 10.957 18.3652V31.0654C10.957 31.9453 11.2061 32.5181 11.7041 32.7837C12.2021 33.0327 13.356 33.1572 15.1655 33.1572ZM0.871582 34.0786C2.93018 33.9624 4.2583 33.647 4.85596 33.1323C5.47021 32.6011 5.77734 31.3809 5.77734 29.4717V6.78564C5.77734 4.90967 5.47021 3.70605 4.85596 3.1748C4.2583 2.62695 2.93018 2.30322 0.871582 2.20361V1.25732H15.1655C19.2495 1.25732 22.4868 1.91309 24.8774 3.22461C27.2847 4.53613 28.4883 6.79395 28.4883 9.99805C28.4883 12.4053 27.6499 14.2314 25.9731 15.4766C25.0269 16.1904 23.6074 16.7798 21.7148 17.2446C24.0557 17.8091 26.0562 18.7554 27.7163 20.0835C29.3765 21.395 30.2065 23.2378 30.2065 25.6118C30.2065 29.5962 28.3638 32.3354 24.6782 33.8296C22.7358 34.6099 20.3452 35 17.5063 35H0.871582V34.0786ZM15.813 16.3481C17.5229 16.3149 18.9424 16.041 20.0713 15.5264C22.2295 14.5303 23.3086 12.7456 23.3086 10.1724C23.3086 7.13428 22.0635 5.08398 19.5732 4.02148C18.1953 3.44043 16.1035 3.1499 13.2979 3.1499C12.2354 3.1499 11.5796 3.24121 11.3306 3.42383C11.0815 3.60645 10.957 4.10449 10.957 4.91797V16.4229L15.813 16.3481ZM43.6419 17.5435C47.3108 17.4106 49.9338 17.0288 51.511 16.3979C54.2171 15.2856 55.5701 13.1938 55.5701 10.1226C55.5701 7.16748 54.3582 5.15039 51.9343 4.07129C50.6394 3.49023 48.9212 3.19971 46.7796 3.19971C45.3352 3.19971 44.447 3.30762 44.115 3.52344C43.7996 3.72266 43.6419 4.2041 43.6419 4.96777V17.5435ZM34.0794 34.0786C36.0383 33.896 37.2586 33.5142 37.74 32.9331C38.2214 32.3521 38.4622 30.999 38.4622 28.874V6.78564C38.4622 4.99268 38.1882 3.82227 37.6404 3.27441C37.1091 2.70996 35.9221 2.35303 34.0794 2.20361V1.25732H48.199C51.1375 1.25732 53.5862 1.63086 55.5452 2.37793C59.2639 3.78906 61.1233 6.38721 61.1233 10.1724C61.1233 12.7124 60.2932 14.6631 58.6331 16.0244C56.9895 17.3857 54.7483 18.2822 51.9094 18.7139L62.4182 31.6382C63.0657 32.4351 63.7131 33.0161 64.3606 33.3813C65.0081 33.7466 65.8381 33.979 66.8508 34.0786V35H58.6331L46.4807 19.3115L43.6419 19.436V29.4717C43.6419 31.3643 43.9241 32.5679 44.4885 33.0825C45.0696 33.5806 46.323 33.9126 48.2488 34.0786V35H34.0794V34.0786ZM67.835 34.0786C69.9102 33.9292 71.2549 33.6221 71.8692 33.1572C72.4834 32.6758 72.7906 31.4473 72.7906 29.4717V6.78564C72.7906 4.90967 72.4834 3.70605 71.8692 3.1748C71.2549 2.62695 69.9102 2.30322 67.835 2.20361V1.25732H82.9258V2.20361C80.8506 2.30322 79.5059 2.62695 78.8916 3.1748C78.2774 3.70605 77.9702 4.90967 77.9702 6.78564V29.4717C77.9702 31.4473 78.2774 32.6758 78.8916 33.1572C79.5059 33.6221 80.8506 33.9292 82.9258 34.0786V35H67.835V34.0786ZM93.9705 31.0654C93.9705 31.8955 94.1697 32.4434 94.5681 32.709C94.9832 32.9746 95.8299 33.1074 97.1082 33.1074C101.093 33.1074 104.371 32.3188 106.945 30.7417C110.896 28.3179 112.871 24.1758 112.871 18.3154C112.871 13.0859 111.244 9.15137 107.991 6.51172C105.201 4.25391 101.508 3.125 96.909 3.125C95.7635 3.125 94.9832 3.24951 94.5681 3.49854C94.1697 3.74756 93.9705 4.29541 93.9705 5.14209V31.0654ZM84.3084 34.0786C86.1678 33.8794 87.3797 33.5474 87.9441 33.0825C88.5086 32.6011 88.7908 31.3975 88.7908 29.4717V6.78564C88.7908 4.92627 88.5169 3.73096 87.969 3.19971C87.4212 2.66846 86.201 2.33643 84.3084 2.20361V1.25732H98.0545C102.686 1.25732 106.604 2.021 109.808 3.54834C115.586 6.2876 118.474 11.1851 118.474 18.2407C118.474 20.7808 117.951 23.1963 116.906 25.4873C115.876 27.7783 114.316 29.7124 112.224 31.2896C110.896 32.2856 109.518 33.041 108.09 33.5557C105.484 34.5186 102.28 35 98.4778 35H84.3084V34.0786ZM120.405 34.0786C122.281 33.8794 123.493 33.5474 124.041 33.0825C124.605 32.6011 124.887 31.3975 124.887 29.4717V6.78564C124.887 4.97607 124.613 3.79736 124.065 3.24951C123.518 2.68506 122.297 2.33643 120.405 2.20361V1.25732H147.499L147.673 8.57861H146.378C145.946 6.3208 145.299 4.85986 144.436 4.1958C143.572 3.53174 141.647 3.19971 138.658 3.19971H131.735C130.988 3.19971 130.523 3.32422 130.341 3.57324C130.175 3.80566 130.092 4.25391 130.092 4.91797V16.2983H137.936C140.111 16.2983 141.497 15.9746 142.095 15.3271C142.692 14.6797 143.174 13.3682 143.539 11.3926H144.734V23.1963H143.539C143.157 21.2207 142.668 19.9175 142.07 19.2866C141.472 18.6392 140.094 18.3154 137.936 18.3154H130.092V30.9409C130.092 31.9536 130.407 32.5513 131.038 32.7339C131.686 32.9165 133.603 33.0078 136.791 33.0078C140.244 33.0078 142.792 32.6343 144.436 31.8872C146.079 31.1235 147.557 29.2891 148.868 26.3838H150.288L147.972 35H120.405V34.0786ZM153.787 24.7402C154.65 27.0312 155.663 28.8574 156.825 30.2188C158.85 32.5928 161.366 33.7798 164.37 33.7798C165.997 33.7798 167.4 33.2651 168.579 32.2358C169.774 31.2065 170.372 29.7705 170.372 27.9277C170.372 26.2676 169.774 24.8232 168.579 23.5947C167.799 22.8145 166.155 21.644 163.648 20.0835L159.29 17.3691C157.979 16.5391 156.933 15.7007 156.153 14.854C154.708 13.2437 153.986 11.4673 153.986 9.5249C153.986 6.95166 154.841 4.81006 156.551 3.1001C158.261 1.39014 160.527 0.535156 163.349 0.535156C164.512 0.535156 165.906 0.825684 167.533 1.40674C169.177 1.97119 170.115 2.25342 170.347 2.25342C170.978 2.25342 171.409 2.104 171.642 1.80518C171.891 1.50635 172.082 1.08301 172.215 0.535156H173.261L174.381 11.3926H173.161C172.331 8.12207 170.994 5.83936 169.152 4.54443C167.325 3.24951 165.516 2.60205 163.723 2.60205C162.328 2.60205 161.108 3.01709 160.062 3.84717C159.033 4.66064 158.518 5.79785 158.518 7.25879C158.518 8.57031 158.917 9.69092 159.714 10.6206C160.511 11.5669 161.747 12.5547 163.424 13.584L167.907 16.3481C170.712 18.0747 172.688 19.6602 173.833 21.1045C174.962 22.5654 175.527 24.292 175.527 26.2842C175.527 28.957 174.514 31.1899 172.489 32.9829C170.48 34.7759 167.907 35.6724 164.769 35.6724C163.192 35.6724 161.54 35.3735 159.813 34.7759C158.103 34.1782 157.124 33.8794 156.875 33.8794C156.277 33.8794 155.87 34.062 155.655 34.4272C155.455 34.7925 155.323 35.1826 155.256 35.5977H154.136L152.617 24.7402H153.787Z" fill="#FCFCFC"/>
</svg>
