<svg width="86" height="35" viewBox="0 0 86 35" fill="none" xmlns="http://www.w3.org/2000/svg">
<path fill-rule="evenodd" clip-rule="evenodd" d="M2.60325 33.7257H0V34.2308H14.415V25.1388H13.9876C13.9876 25.1388 13.9876 30.3842 12.2392 32.0938C10.7627 33.5703 9.20851 33.6868 6.68297 33.6868V16.9405C6.68297 16.9405 8.43142 16.824 9.28622 17.6788C10.6073 18.9998 10.7627 20.7094 10.7627 23.0796H11.2289V10.2576H10.7627C10.7627 12.6277 10.6461 14.3373 9.28622 15.6583C8.43142 16.5131 6.68297 16.3966 6.68297 16.3966V0.505108C9.20851 0.505108 10.413 0.660526 11.8895 2.09814C13.5991 3.80774 13.6379 9.05309 13.6379 9.05309H14.0653V0H0V0.505108H2.60325V33.7257Z" fill="#FCFCFC"/>
<path fill-rule="evenodd" clip-rule="evenodd" d="M30.7728 0.505108V33.7257C33.2984 33.7257 34.8525 33.5703 36.329 32.1326C38.0386 30.423 38.0775 25.1777 38.0775 25.1777H38.5049V34.2696H24.0898V33.7645H26.6931V0.466254H24.0898V0H33.1429V0.505108H30.7728Z" fill="#FCFCFC"/>
<path fill-rule="evenodd" clip-rule="evenodd" d="M53.931 0.505108V33.7257C56.4566 33.7257 58.0107 33.5703 59.4872 32.1326C61.1968 30.423 61.2357 25.1777 61.2357 25.1777H61.6631V34.2696H47.248V33.7645H49.8513V0.466254H47.248V0H56.3011V0.505108H53.931Z" fill="#FCFCFC"/>
<path fill-rule="evenodd" clip-rule="evenodd" d="M73.5915 33.7257H70.9883V34.2308H85.4033V25.1388H84.9759C84.9759 25.1388 84.9759 30.3842 83.2274 32.0938C81.751 33.5703 80.1968 33.6868 77.6712 33.6868V16.9405C77.6712 16.9405 79.4197 16.824 80.2745 17.6788C81.5956 18.9998 81.751 20.7094 81.751 23.0796H82.2172V10.2576H81.751C81.751 12.6277 81.6344 14.3373 80.2745 15.6583C79.4197 16.5131 77.6712 16.3966 77.6712 16.3966V0.505108C80.1968 0.505108 81.4013 0.660526 82.8778 2.09814C84.5873 3.80774 84.6262 9.05309 84.6262 9.05309H85.0536V0H70.9883V0.505108H73.5915V33.7257Z" fill="#FCFCFC"/>
</svg>
