<svg width="117" height="37" viewBox="0 0 117 37" fill="none" xmlns="http://www.w3.org/2000/svg">
<g id="Group 2085662483">
<path id="Vector" d="M3.32082 33.9289H20.3529C20.3771 33.9289 20.401 33.9337 20.4234 33.9429C20.4457 33.9522 20.4661 33.9657 20.4832 33.9829C20.5003 34 20.5138 34.0203 20.5231 34.0426C20.5324 34.065 20.5371 34.089 20.5371 34.1132L20.5187 36.2936C20.5187 36.3178 20.5139 36.3418 20.5047 36.3641C20.4954 36.3865 20.4818 36.4068 20.4647 36.4239C20.4476 36.441 20.4273 36.4546 20.405 36.4638C20.3826 36.4731 20.3586 36.4779 20.3344 36.4779L0.587581 36.484C0.538711 36.484 0.491846 36.4646 0.45729 36.43C0.422734 36.3955 0.40332 36.3486 0.40332 36.2997L0.409459 0.196472C0.409459 0.147602 0.428872 0.100732 0.463428 0.0661763C0.497984 0.0316203 0.544854 0.012207 0.593724 0.012207L2.95229 0.0244892C3.00116 0.0244892 3.04803 0.0439024 3.08258 0.0784584C3.11714 0.113014 3.13655 0.159884 3.13655 0.208754V33.7446C3.13655 33.7688 3.14132 33.7928 3.15058 33.8151C3.15984 33.8375 3.17341 33.8578 3.19052 33.8749C3.20763 33.892 3.22795 33.9056 3.2503 33.9149C3.27266 33.9241 3.29662 33.9289 3.32082 33.9289Z" fill="white"/>
<path id="Vector_2" d="M46.4939 25.8214H28.9828C28.9433 25.821 28.9046 25.8325 28.8717 25.8544C28.8388 25.8763 28.8133 25.9076 28.7985 25.9442L24.7079 36.3489C24.6931 36.3856 24.6676 36.4169 24.6347 36.4388C24.6018 36.4607 24.5631 36.4722 24.5236 36.4718L21.9501 36.4963C21.9177 36.4967 21.8858 36.489 21.8571 36.4741C21.8284 36.4591 21.8039 36.4373 21.7856 36.4105C21.7674 36.3838 21.756 36.353 21.7526 36.3208C21.7491 36.2886 21.7537 36.2561 21.7658 36.2261L36.1445 0.128959C36.1593 0.0923375 36.1848 0.061026 36.2177 0.0391134C36.2505 0.0172008 36.2892 0.00570133 36.3287 0.00611426H39.1295C39.169 0.00570133 39.2077 0.0172008 39.2406 0.0391134C39.2735 0.061026 39.299 0.0923375 39.3138 0.128959L53.674 36.1462C53.6862 36.1762 53.6907 36.2088 53.6873 36.241C53.6838 36.2731 53.6725 36.3039 53.6542 36.3307C53.636 36.3574 53.6114 36.3792 53.5828 36.3942C53.5541 36.4092 53.5221 36.4168 53.4898 36.4165L50.8794 36.3551C50.8402 36.3538 50.8023 36.3408 50.7706 36.3178C50.7389 36.2948 50.7147 36.2629 50.7013 36.2261L46.6782 25.9442C46.6634 25.9076 46.6379 25.8763 46.605 25.8544C46.5721 25.8325 46.5334 25.821 46.4939 25.8214ZM30.0147 22.9899C30.0024 23.019 29.9976 23.0507 30.0007 23.0822C30.0038 23.1137 30.0147 23.1438 30.0323 23.17C30.05 23.1963 30.0739 23.2176 30.102 23.2323C30.13 23.247 30.1612 23.2544 30.1928 23.254H45.2655C45.2971 23.2544 45.3283 23.247 45.3563 23.2323C45.3843 23.2176 45.4083 23.1963 45.4259 23.17C45.4436 23.1438 45.4545 23.1137 45.4576 23.0822C45.4606 23.0507 45.4559 23.019 45.4436 22.9899L37.9073 3.64838C37.8936 3.6122 37.8692 3.58103 37.8374 3.55904C37.8056 3.53704 37.7678 3.52526 37.7291 3.52526C37.6905 3.52526 37.6527 3.53704 37.6209 3.55904C37.5891 3.58103 37.5647 3.6122 37.551 3.64838L30.0147 22.9899Z" fill="white"/>
<path id="Vector_3" d="M84.0958 0.0122821H86.4544C86.5049 0.0122821 86.5533 0.032343 86.589 0.0680509C86.6247 0.103759 86.6448 0.152187 86.6448 0.202686V36.2814C86.6448 36.3064 86.6399 36.3312 86.6303 36.3543C86.6207 36.3774 86.6067 36.3983 86.589 36.416C86.5713 36.4337 86.5503 36.4477 86.5272 36.4573C86.5041 36.4669 86.4794 36.4718 86.4544 36.4718L83.9975 36.4964C83.9674 36.4961 83.9378 36.4888 83.9112 36.4749C83.8845 36.461 83.8614 36.441 83.844 36.4165L61.972 5.27606C61.9483 5.24383 61.9152 5.21985 61.8771 5.20752C61.8391 5.19519 61.7982 5.19514 61.7601 5.20737C61.7221 5.2196 61.6888 5.24349 61.6651 5.27566C61.6414 5.30783 61.6284 5.34666 61.628 5.38662L61.585 36.3121C61.585 36.3626 61.5649 36.411 61.5292 36.4467C61.4935 36.4824 61.4451 36.5025 61.3946 36.5025L59.0545 36.4902C59.004 36.4902 58.9555 36.4702 58.9198 36.4345C58.8841 36.3988 58.864 36.3503 58.864 36.2998L58.8579 0.202686C58.8579 0.152187 58.878 0.103759 58.9137 0.0680509C58.9494 0.032343 58.9978 0.0122821 59.0483 0.0122821L61.4929 0C61.523 0.000232438 61.5526 0.00758767 61.5792 0.0214668C61.6059 0.0353459 61.629 0.0553523 61.6464 0.0798456L83.5614 31.1527C83.5851 31.185 83.6183 31.209 83.6563 31.2213C83.6943 31.2336 83.7352 31.2337 83.7733 31.2214C83.8113 31.2092 83.8446 31.1853 83.8683 31.1531C83.892 31.121 83.905 31.0822 83.9054 31.0422V0.202686C83.9054 0.152187 83.9255 0.103759 83.9612 0.0680509C83.9969 0.032343 84.0453 0.0122821 84.0958 0.0122821Z" fill="white"/>
<path id="Vector_4" d="M98.5606 19.2493L98.5545 33.7201C98.5545 33.7755 98.5765 33.8286 98.6157 33.8678C98.6548 33.907 98.7079 33.929 98.7633 33.929H116.195C116.222 33.929 116.249 33.9344 116.275 33.9449C116.3 33.9554 116.323 33.9707 116.342 33.9901C116.362 34.0095 116.377 34.0326 116.388 34.0579C116.398 34.0832 116.403 34.1104 116.403 34.1378L116.385 36.2691C116.385 36.3245 116.363 36.3776 116.324 36.4168C116.285 36.4559 116.232 36.4779 116.176 36.4779L96.0731 36.4841C96.0177 36.4841 95.9646 36.4621 95.9254 36.4229C95.8863 36.3838 95.8643 36.3306 95.8643 36.2752V0.208829C95.8643 0.153444 95.8863 0.100326 95.9254 0.0611624C95.9646 0.0219989 96.0177 0 96.0731 0L115.777 0.0307077C115.804 0.0307077 115.832 0.036108 115.857 0.0466028C115.882 0.0570976 115.905 0.0724829 115.925 0.0918747C115.944 0.111267 115.959 0.134289 115.97 0.159626C115.98 0.184962 115.986 0.212117 115.986 0.239542L116.016 2.27872C116.016 2.33411 115.994 2.38722 115.955 2.42639C115.916 2.46555 115.863 2.48755 115.808 2.48755L98.7756 2.61653C98.7482 2.61653 98.721 2.62194 98.6957 2.63243C98.6704 2.64293 98.6473 2.65831 98.628 2.6777C98.6086 2.69709 98.5932 2.72011 98.5827 2.74545C98.5722 2.77079 98.5668 2.79794 98.5668 2.82537L98.5606 16.2766C98.5606 16.332 98.5826 16.3851 98.6218 16.4242C98.661 16.4634 98.7141 16.4854 98.7695 16.4854L114.549 16.4915C114.604 16.4915 114.657 16.5135 114.696 16.5527C114.735 16.5919 114.757 16.645 114.757 16.7004L114.764 18.8255C114.764 18.8809 114.742 18.934 114.702 18.9732C114.663 19.0124 114.61 19.0344 114.555 19.0344L98.7695 19.0405C98.7141 19.0405 98.661 19.0625 98.6218 19.1017C98.5826 19.1408 98.5606 19.194 98.5606 19.2493Z" fill="white"/>
</g>
</svg>
