<svg width="324" height="32" viewBox="0 0 324 32" fill="none" xmlns="http://www.w3.org/2000/svg">
<path d="M0 0.0539551V31.3853H23.512L24.1591 30.0911H4.36805V0.0539551H0Z" fill="#FCFCFC"/>
<path d="M42.3325 0L26.5859 31.3853H28.042L41.7393 4.09842L49.289 19.09H37.9644L37.3173 20.3842H49.9362L55.4906 31.3853H60.2901L44.4356 0H42.3325Z" fill="#FCFCFC"/>
<path d="M92.7002 0V24.8062L66.2762 0H64.1191V31.3853H65.683V6.03978L91.9992 31.3853H94.2641V0H92.7002Z" fill="#FCFCFC"/>
<path d="M101.273 0.0539299V31.3314H124.354L125.001 30.0371H105.641V16.178H120.903V14.8837H105.641V1.29423H123.168L122.521 0L101.273 0.0539299Z" fill="#FCFCFC"/>
<path d="M152.883 14.5062C155.363 14.2366 157.358 13.3199 158.922 11.8099C160.378 10.4078 161.079 8.89788 161.079 7.17223C161.079 5.17695 160.163 3.50523 158.275 2.15706C156.226 0.754972 153.638 0 149.917 0H138.053V31.3853H149.108C153.422 31.3853 156.603 30.6303 159.192 29.1743C161.996 27.5565 163.021 24.7523 163.021 22.3256C163.021 18.4968 159.785 14.722 152.883 14.5062ZM151.912 1.6178C155.147 2.58848 156.765 4.85339 156.765 7.7115C156.765 10.246 155.741 12.0795 153.799 13.1042C152.829 13.6434 150.402 14.2905 146.735 14.2905H142.475V1.18639C145.98 1.13246 150.132 1.07853 151.912 1.6178ZM147.921 30.2528H142.367V15.5309H147.328C151.48 15.5309 154.554 16.2858 156.01 17.2565C157.844 18.5507 158.761 20.4382 158.761 22.9188C158.814 27.7183 155.633 30.2528 147.921 30.2528Z" fill="#FCFCFC"/>
<path d="M186.478 16.3937C190.738 15.0994 192.733 12.0795 192.733 9.05966C192.733 6.63296 191.709 3.82879 188.905 2.21099C186.37 0.754975 183.188 0 178.82 0H168.574V31.3853H172.888V17.1486C172.888 17.1486 175.423 17.1486 177.041 17.1486C178.389 17.1486 181.085 16.9869 181.948 16.9329L190.954 31.3853H195.807L186.478 16.3937ZM177.149 15.8544H172.942V1.13246H178.119C185.777 1.13246 188.635 3.66701 188.635 8.46648C188.635 10.9471 187.718 12.7806 185.885 14.1288C184.429 15.0995 181.301 15.8544 177.149 15.8544Z" fill="#FCFCFC"/>
<path d="M225.089 0L212.309 15.9083L199.474 0H194.729L208.534 17.3644V31.3853H212.902V17.3644L226.761 0H225.089Z" fill="#FCFCFC"/>
<path d="M254.749 31.3853L238.895 0H236.791L221.045 31.3853H222.447L236.144 4.09842L243.694 19.09H232.37L231.722 20.3842H244.341L249.896 31.3853H254.749Z" fill="#FCFCFC"/>
<path d="M286.89 0V24.8062L260.466 0H258.309V31.3853H259.872V6.0937L286.243 31.3853H288.454V0H286.89Z" fill="#FCFCFC"/>
<path d="M323.559 0H290.934V1.34816H304.523V31.3853H308.891V1.34816H323.559V0Z" fill="#FCFCFC"/>
</svg>
