<svg width="97" height="52" viewBox="0 0 97 52" fill="none" xmlns="http://www.w3.org/2000/svg">
<g id="Group 2085662485">
<path id="Vector" d="M9.02906 0.754601C7.13067 0.727304 5.35883 0.667746 3.71108 0.851382C1.86976 1.05735 1.20967 3.57117 1.0037 5.08492C1.0012 5.10525 0.991405 5.12392 0.976245 5.13724C0.961085 5.15057 0.941661 5.15757 0.921806 5.15688L0.346084 5.14447C0.29149 5.14282 0.26502 5.1147 0.266675 5.0601L0.380826 0.111875C0.38248 0.0390823 0.420531 0.00268555 0.494977 0.00268555L20.8884 0.00516953C20.9317 0.00515026 20.9732 0.0219849 21.0043 0.0521001C21.0353 0.0822153 21.0534 0.123239 21.0547 0.166469L21.149 5.01792C21.1506 5.10394 21.1093 5.14778 21.0249 5.14944L20.6651 5.16185C20.5509 5.16516 20.4814 5.11056 20.4566 4.99806C20.1216 3.41979 19.6005 0.992828 17.583 0.848898C15.8972 0.728129 14.1551 0.702487 12.3568 0.77197C12.2807 0.775279 12.2427 0.814983 12.2427 0.891084C12.2377 6.15861 12.2377 11.5254 12.2427 16.9914C12.2427 17.4249 12.27 18.0254 12.3246 18.793C12.4759 20.89 14.3818 20.5723 15.8658 20.6021C15.8936 20.6027 15.9201 20.6145 15.9396 20.6349C15.9591 20.6554 15.97 20.6828 15.97 20.7113L15.9675 21.2051C15.9658 21.2845 15.9253 21.3242 15.8459 21.3242H5.51021C5.42914 21.3242 5.38778 21.2837 5.38613 21.2026L5.38365 20.7187C5.38365 20.6277 5.42914 20.5831 5.52013 20.5847C6.72369 20.6244 8.58237 20.8379 8.98439 19.3514C9.11012 18.8849 9.17381 18.3935 9.17547 17.8774C9.1887 12.1598 9.19118 6.50437 9.18291 0.910937C9.18291 0.808366 9.13163 0.756256 9.02906 0.754601Z" fill="white"/>
<path id="Vector_2" d="M30.4453 9.54924L41.2996 9.54676C41.3176 9.54677 41.3349 9.53979 41.3479 9.52729C41.3609 9.51479 41.3685 9.49775 41.3691 9.47976C41.4038 7.08919 41.3881 4.7739 41.322 2.53388C41.2996 1.78693 40.9448 0.96553 40.0886 0.863787C39.4037 0.781068 38.7577 0.740538 38.1505 0.742193C38.0215 0.743847 37.9578 0.679327 37.9594 0.548631L37.9669 0.178878C37.9702 0.0614174 38.0306 0.00268555 38.148 0.00268555L47.4415 0.00516953C47.4705 0.00515229 47.4992 0.0109724 47.5259 0.0222848C47.5525 0.0335971 47.5767 0.050171 47.5968 0.071014C47.617 0.0918569 47.6327 0.116543 47.6431 0.143602C47.6535 0.170661 47.6584 0.199536 47.6574 0.228508L47.6425 0.603226C47.6408 0.687599 47.597 0.731439 47.511 0.734748C47.0295 0.756255 46.5233 0.786034 45.9922 0.824084C44.5132 0.933273 44.5108 2.25842 44.4983 3.38505C44.4438 8.28365 44.4446 13.15 44.5008 17.9841C44.5132 19.1429 44.6274 20.3639 46.0816 20.5301C46.5795 20.588 47.0593 20.6071 47.5209 20.5872C47.5363 20.5865 47.5517 20.589 47.5661 20.5944C47.5805 20.5999 47.5937 20.6082 47.6048 20.6188C47.616 20.6295 47.6248 20.6423 47.6309 20.6565C47.6369 20.6707 47.64 20.6859 47.64 20.7014V21.2051C47.64 21.2845 47.6003 21.3242 47.5209 21.3242H38.1778C38.0389 21.3242 37.9677 21.2547 37.9644 21.1158L37.957 20.7163C37.9565 20.6964 37.9603 20.6766 37.968 20.6583C37.9757 20.64 37.9872 20.6235 38.0017 20.6099C38.0163 20.5963 38.0335 20.586 38.0523 20.5795C38.0711 20.573 38.091 20.5706 38.1108 20.5723C38.7759 20.6286 39.3954 20.5996 39.9695 20.4855C41.245 20.2348 41.3368 19.0213 41.3517 17.8798C41.3815 15.5091 41.3898 13.1583 41.3766 10.8272C41.3766 10.7098 41.3186 10.6511 41.2028 10.6511L30.4378 10.6461C30.3369 10.6461 30.2856 10.6966 30.284 10.7975C30.2377 13.4991 30.255 16.1386 30.3361 18.7161C30.3957 20.5847 31.9566 20.6517 33.4182 20.5847C33.4313 20.5841 33.4444 20.5861 33.4567 20.5908C33.469 20.5955 33.4803 20.6027 33.4898 20.612C33.4993 20.6213 33.5069 20.6324 33.5121 20.6448C33.5173 20.6572 33.5199 20.6705 33.5199 20.684L33.5175 21.225C33.5168 21.2515 33.5061 21.2768 33.4875 21.2953C33.469 21.3138 33.4441 21.3242 33.4182 21.3242L24.023 21.3267C23.9601 21.3267 23.9287 21.2945 23.9287 21.2299L23.9362 20.6517C23.9362 20.5955 23.9651 20.5698 24.023 20.5748C25.3432 20.6939 26.9215 20.622 27.0877 18.9072C27.1589 18.1693 27.1953 17.415 27.1969 16.644C27.2052 12.111 27.2035 8.0206 27.192 4.37271C27.1887 3.65637 27.1523 2.94251 27.0828 2.23113C27.0108 1.49659 26.6187 0.938235 25.847 0.853862C25.2216 0.784378 24.6368 0.750463 24.0925 0.752117C23.9932 0.752117 23.9436 0.703314 23.9436 0.605706V0.181358C23.9453 0.0622432 24.0056 0.00268555 24.1248 0.00268555L33.3016 0.00516953C33.3313 0.00516218 33.3608 0.0111001 33.3882 0.0226331C33.4156 0.0341661 33.4405 0.0510603 33.4613 0.0723279C33.4821 0.0935955 33.4984 0.118808 33.5093 0.14648C33.5203 0.174152 33.5256 0.203728 33.5249 0.233472L33.5199 0.548631C33.5183 0.676018 33.4529 0.740538 33.3239 0.742193C32.7631 0.743847 32.2221 0.776933 31.701 0.841453C30.8241 0.948988 30.3692 1.50486 30.3361 2.50906C30.2583 4.86985 30.2401 7.16364 30.2815 9.39042C30.2848 9.4963 30.3394 9.54924 30.4453 9.54924Z" fill="white"/>
<path id="Vector_3" d="M57.7837 0.930584L57.7812 9.52918C57.7812 9.62514 57.8292 9.67311 57.9251 9.67311C58.9326 9.67808 59.9079 9.67229 60.8509 9.65574C61.6822 9.64334 62.7964 9.47955 63.0495 8.56138C63.205 7.99558 63.2737 7.3785 63.2555 6.71014C63.2522 6.56455 63.3233 6.49341 63.4689 6.49672L63.7146 6.4992C63.8866 6.50251 63.9727 6.59019 63.9727 6.76225L63.9751 13.6436C63.9751 13.7412 63.9263 13.7892 63.8287 13.7875L63.4143 13.7826C63.3068 13.7826 63.2538 13.728 63.2555 13.6188C63.2704 12.2564 63.2108 10.5814 61.4365 10.502C60.2652 10.4474 59.0832 10.4374 57.8904 10.4722C57.8258 10.4738 57.7928 10.5077 57.7911 10.5739C57.7613 12.9843 57.7746 15.2343 57.8308 17.3238C57.8523 18.1278 57.9665 18.9426 58.1733 19.7681C58.1948 19.8541 58.2386 19.9261 58.3048 19.984C58.7217 20.338 59.2387 20.5291 59.8558 20.5572C60.9311 20.6069 62.0189 20.616 63.119 20.5845C64.402 20.5498 65.6006 20.2297 66.5312 19.304C67.7868 18.0533 68.437 16.5148 68.8142 14.8248C68.834 14.7371 68.8895 14.6933 68.9804 14.6933L69.5239 14.7007C69.5917 14.7007 69.6232 14.7347 69.6182 14.8025L69.1591 21.2124C69.1572 21.2427 69.1436 21.2711 69.121 21.2919C69.0984 21.3126 69.0685 21.3241 69.0375 21.324H51.6195C51.5918 21.324 51.5653 21.313 51.5458 21.2935C51.5262 21.274 51.5152 21.2474 51.5152 21.2198L51.5128 20.6664C51.5111 20.6019 51.5434 20.5713 51.6095 20.5746C52.7759 20.649 54.2971 20.6466 54.5651 19.2073C54.6925 18.529 54.7545 17.7067 54.7512 16.7406C54.7413 12.7387 54.7396 8.68546 54.7462 4.58096C54.7479 3.73061 54.6958 2.90591 54.5899 2.10684C54.4137 0.756877 53.1729 0.769284 52.1232 0.749432C51.9776 0.746123 51.9123 0.671674 51.9272 0.526089L51.9644 0.181153C51.976 0.0603835 52.043 0 52.1654 0L67.0225 0.00496418C67.0696 0.00481714 67.1152 0.0225696 67.1501 0.0547233C67.185 0.086877 67.2068 0.131099 67.2111 0.178672L67.6751 5.20135C67.6834 5.28737 67.6437 5.33039 67.556 5.33039H67.1069C67.0577 5.33034 67.0101 5.31352 66.9722 5.28277C66.9342 5.25203 66.9081 5.20924 66.8984 5.16164C66.623 3.80671 66.1291 2.27311 64.9702 1.44178C64.4789 1.0894 63.7849 0.887569 62.8882 0.836284C61.0833 0.733713 59.438 0.707245 57.9524 0.756876C57.8399 0.761839 57.7837 0.819741 57.7837 0.930584Z" fill="white"/>
<path id="Vector_4" d="M34.019 46.5965C34.0968 46.8529 34.177 46.8537 34.2597 46.599L39.6373 30.0395C39.6687 29.9436 39.7349 29.8939 39.8358 29.8906L40.3941 29.8683C40.5166 29.865 40.5985 29.9204 40.6398 30.0346L46.7494 46.7354C46.8023 46.881 46.8512 46.8794 46.8958 46.7305C48.2193 42.2323 49.3931 38.1129 50.4172 34.3723C50.8663 32.7271 51.0921 30.6202 48.6453 30.5979C48.556 30.5962 48.5113 30.5507 48.5113 30.4614L48.5163 30.0073C48.5163 29.9212 48.5593 29.8782 48.6453 29.8782H54.2065C54.2958 29.8782 54.3405 29.9229 54.3405 30.0122V30.4639C54.3406 30.501 54.3265 30.5369 54.3012 30.564C54.2758 30.5912 54.2411 30.6078 54.204 30.6103C53.1601 30.6765 52.4272 31.2224 52.0053 32.2481C51.5256 33.4194 51.0731 34.7388 50.6479 36.2062C49.245 41.0519 47.7528 46.1771 46.1712 51.5819C46.1447 51.668 46.0868 51.7077 45.9975 51.701L45.5707 51.6688C45.4714 51.6605 45.4044 51.6101 45.3697 51.5174L39.0318 34.3599C38.9739 34.2028 38.9193 34.2036 38.868 34.3624C37.0316 40.0501 35.2093 45.6924 33.4011 51.2891C33.2671 51.701 32.9999 51.8268 32.5996 51.6663C32.5301 51.6382 32.4838 51.5877 32.4606 51.5149C30.3595 44.6791 28.39 38.3296 26.552 32.4665C26.1516 31.1893 25.341 30.5772 24.1201 30.6301C24.097 30.6311 24.0739 30.6275 24.0523 30.6193C24.0306 30.6112 24.0109 30.5987 23.9942 30.5827C23.9775 30.5667 23.9642 30.5475 23.9551 30.5262C23.946 30.5049 23.9414 30.482 23.9414 30.4589V30.0097C23.9414 29.9221 23.9861 29.8782 24.0754 29.8782H31.7534C31.884 29.8782 31.9477 29.9436 31.9444 30.0743L31.937 30.4341C31.9357 30.4852 31.9145 30.5338 31.8778 30.5695C31.8412 30.6052 31.7921 30.6252 31.7409 30.6252C29.0931 30.6227 29.6217 32.1489 30.1056 33.7371C31.3795 37.9292 32.6839 42.2157 34.019 46.5965Z" fill="white"/>
<path id="Vector_5" d="M60.4546 41.6532C59.7796 43.9478 59.0947 46.2424 58.3998 48.537C58.3237 48.7885 58.3386 49.0788 58.4445 49.408C58.6678 50.1078 59.5414 50.3361 60.189 50.3957C61.8591 50.5471 63.5118 50.5148 65.1795 50.289C67.6577 49.9532 69.4974 48.4684 70.6984 45.8346C70.7051 45.8164 70.7175 45.8056 70.7357 45.8023C70.9805 45.756 71.203 45.7676 71.4032 45.8371C71.4131 45.8404 71.4173 45.847 71.4156 45.8569L69.8324 51.0111C69.818 51.0585 69.7888 51.1 69.749 51.1295C69.7092 51.159 69.661 51.1749 69.6115 51.1749L52.1339 51.1451C52.0231 51.1451 51.9842 51.0922 52.0173 50.9863L52.1488 50.5496C52.1835 50.4387 52.2588 50.3858 52.3746 50.3907C53.9032 50.4701 55.0597 50.0508 55.546 48.4576C57.2798 42.7864 58.9011 37.4279 60.4099 32.3821C60.9434 30.6028 59.1691 30.5259 58.0028 30.5953C57.8953 30.602 57.8572 30.554 57.8886 30.4514L58.0226 30.0072C58.0343 29.9697 58.0578 29.9369 58.0895 29.9137C58.1212 29.8904 58.1595 29.878 58.1988 29.8782H73.108C73.204 29.8782 73.2528 29.9262 73.2544 30.0221L73.3363 34.5385C73.3367 34.5554 73.3336 34.5721 73.3274 34.5877C73.3212 34.6034 73.3119 34.6176 73.3002 34.6296C73.2884 34.6417 73.2743 34.6512 73.2588 34.6577C73.2433 34.6642 73.2266 34.6676 73.2098 34.6676L72.8152 34.6651C72.7143 34.6651 72.6531 34.6163 72.6316 34.5187C72.2966 33.0298 71.4156 31.1934 69.8522 30.7765C69.4965 30.6805 68.7661 30.6218 67.661 30.6003C66.3689 30.5738 65.124 30.5755 63.9263 30.6053C63.8386 30.6069 63.7823 30.6499 63.7575 30.7343L61.0948 39.5612C61.0716 39.6373 61.0998 39.6779 61.1792 39.6828C62.7078 39.7622 64.5566 39.7697 65.8793 39.0972C66.8098 38.6232 67.532 37.3948 67.9389 36.3823C67.9803 36.2814 68.0548 36.2301 68.1623 36.2285H68.5519C68.5742 36.2282 68.5962 36.2333 68.6162 36.2432C68.6362 36.2531 68.6536 36.2676 68.6669 36.2855C68.6802 36.3035 68.6891 36.3243 68.6928 36.3463C68.6966 36.3683 68.695 36.3908 68.6884 36.4121L66.2416 44.5194C66.225 44.5723 66.1894 44.598 66.1349 44.5963L65.5591 44.5715C65.5145 44.5698 65.4971 44.5467 65.507 44.502C65.7055 43.6186 65.7304 42.7368 65.5815 41.8567C65.4326 40.9798 64.8841 40.5183 63.9362 40.4719C63.0213 40.4256 62.0304 40.4066 60.9633 40.4149C60.8855 40.4165 60.8342 40.4538 60.8094 40.5265C60.6854 40.8938 60.5671 41.2694 60.4546 41.6532Z" fill="white"/>
<path id="Vector_6" d="M77.1908 48.7279C78.8898 43.156 80.507 37.8173 82.0422 32.712C82.618 30.8012 80.6228 30.8235 79.4292 30.9004C79.3266 30.907 79.2918 30.8624 79.3249 30.7664L79.4862 30.2775C79.5094 30.2081 79.5582 30.1733 79.6326 30.1733C81.6402 30.1783 83.6329 30.1808 85.6206 30.0592C89.8269 29.8011 93.852 30.8955 95.5121 35.1712C96.9316 38.8364 96.2765 42.9682 94.1622 46.1967C92.4135 48.8652 89.9534 50.5279 86.782 51.1847C85.9879 51.3485 84.6909 51.4345 82.8909 51.4427C79.6302 51.456 76.4422 51.461 73.327 51.4576C73.2244 51.4576 73.1856 51.408 73.2104 51.3087L73.3345 50.8149C73.3413 50.787 73.3577 50.7623 73.3808 50.7451C73.4039 50.7278 73.4322 50.7192 73.461 50.7206C75.2229 50.8224 76.63 50.5593 77.1908 48.7279ZM80.6377 50.3434C80.957 50.5122 81.3251 50.6247 81.742 50.6809C86.4197 51.2963 89.5638 49.2391 91.6459 45.2066C92.928 42.7267 93.4872 40.1401 93.3234 37.4468C93.0529 32.97 90.2512 30.1559 85.6132 30.7416C85.571 30.7469 85.5313 30.7642 85.4987 30.7915C85.4661 30.8188 85.4421 30.8549 85.4296 30.8954C83.7471 36.431 82.0133 42.1369 80.2282 48.0132C79.9825 48.8297 79.6475 49.8173 80.6377 50.3434Z" fill="white"/>
</g>
</svg>
