<svg width="136" height="35" viewBox="0 0 136 35" fill="none" xmlns="http://www.w3.org/2000/svg">
<path d="M39.4238 0.15018C31.5456 0.206505 25.1016 8.96246 25.1016 16.5997C25.1016 24.6365 29.8253 34.4403 39.4238 34.4085C49.0222 34.3766 54.0041 23.8221 54.0041 16.5997C54.0041 8.62192 47.3019 0.0938561 39.4238 0.15018ZM39.4238 0.449737C46.0175 0.449737 47.7964 7.73197 47.7964 16.5997C47.7964 28.3004 45.6505 34.073 39.4238 34.062C33.197 34.051 31.1713 29.3264 31.1713 16.5997C31.1713 8.62739 32.8301 0.449737 39.4238 0.449737Z" fill="#FCFCFC"/>
<path d="M56.6056 16.8157C56.5703 8.12577 63.5253 0.428146 69.4128 0.0462308C71.5394 -0.104433 74.2731 0.869431 75.869 1.56317C77.0279 2.06694 79.3935 1.33776 79.8136 0H80.0427V11.8373H79.8136C79.8136 11.3327 77.6214 0.343841 69.4128 0.343841C63.3496 0.343841 62.7639 11.0051 62.7639 16.8157C62.7639 22.6263 62.9406 34.1294 70.016 34.1294C73.4435 34.1294 75.9806 32.6298 76.6383 29.5962V20.3718H73.7613V19.9789H84.913V20.3718H82.1625V33.8577H81.9385C81.9385 33.8577 81.4913 31.9119 79.2223 31.9184C76.3222 31.9267 73.5872 34.4463 70.2533 34.4156C61.4362 34.3345 56.6409 25.5057 56.6056 16.8157Z" fill="#FCFCFC"/>
<path d="M3.47229 1.31634H0V0.926025H12.1636V1.31634H9.11206L17.8033 24.9189C20.521 16.5518 22.6265 10.3667 25.4598 1.31634H22.4414V0.926025H28.8639V1.31634H25.9392L15.3759 34.2465L3.47229 1.31634Z" fill="#FCFCFC"/>
<path d="M86.6159 26.1843L86.561 1.27835H83.2559V0.905273H95.4325V1.27835H92.1293L92.2027 28.5863C92.9339 31.7133 94.234 34.086 98.6757 34.1214C103.117 34.1567 106.137 31.4938 107.259 27.8547V1.27835H103.478L103.478 0.916263H134.424L134.489 12.8721H134.191C133.617 5.15266 130.639 2.23527 125.429 1.38416C123.637 1.09129 121.756 1.3084 119.379 1.28992V16.5487C121.449 16.7086 123.654 16.5778 125.14 15.3015C126.492 14.1408 126.874 11.4593 126.973 10.3699H127.235V23.6556H126.951C126.87 23.6556 126.761 20.3216 125.14 18.7398C123.509 17.1477 121.432 16.7562 119.379 17.1356V33.4353C122.279 33.4353 124.59 33.6809 126.597 33.1306C132.699 31.4578 134.847 26.3103 134.83 21.1475H135.17V33.8212H110.896V33.4353H113.641V1.27835H107.711V27.8547C107.039 30.3976 104.582 34.6044 98.2871 34.5757C92.4339 34.549 86.6286 31.9102 86.6159 26.1843Z" fill="#FCFCFC"/>
</svg>
